<svg width="492" height="292" viewBox="0 0 492 292" fill="none" xmlns="http://www.w3.org/2000/svg">
    <path d="M484.132 24.986L468.016 8.758C462.944 3.69 456.196 0.898003 448.984 0.898003C441.776 0.898003 435.02 3.69 429.948 8.758L246.108 192.606L62.056 8.554C56.992 3.486 50.236 0.697998 43.028 0.697998C35.82 0.697998 29.06 3.486 23.992 8.554L7.872 24.682C-2.624 35.17 -2.624 52.254 7.872 62.742L227.008 282.666C232.072 287.73 238.82 291.298 246.092 291.298H246.176C253.388 291.298 260.136 287.726 265.2 282.666L484.132 63.338C489.204 58.274 491.988 51.322 491.996 44.114C491.996 36.902 489.204 30.046 484.132 24.986Z"
          fill="#727272"/>
</svg>
