<svg width="634" height="634" viewBox="0 0 634 634" fill="none" xmlns="http://www.w3.org/2000/svg">
<g clip-path="url(#clip0)">
<path d="M475.392 418.823L379.225 322.657C376.101 319.533 376.101 314.467 379.225 311.343L475.392 215.177C491.012 199.557 491.012 174.228 475.392 158.608C459.772 142.988 434.443 142.988 418.823 158.608L322.657 254.775C319.533 257.899 314.467 257.899 311.343 254.775L215.177 158.608C199.557 142.988 174.228 142.988 158.608 158.608C142.988 174.228 142.988 199.557 158.608 215.177L254.775 311.343C257.899 314.467 257.899 319.533 254.775 322.657L158.608 418.823C142.988 434.443 142.988 459.772 158.608 475.392C174.228 491.012 199.557 491.012 215.177 475.392L311.343 379.225C314.467 376.101 319.533 376.101 322.657 379.225L418.823 475.392C434.443 491.012 459.772 491.012 475.392 475.392C491.012 459.772 491.012 434.443 475.392 418.823Z" fill="#838383"/>
</g>
<defs>
<clipPath id="clip0">
<rect width="448" height="448" fill="white" transform="translate(317 0.216187) rotate(45)"/>
</clipPath>
</defs>
</svg>
