<svg width="66" height="51" viewBox="0 0 66 51" fill="none" xmlns="http://www.w3.org/2000/svg">
    <path d="M2.352 19.992V12.936L30.288 12.84V14.328L9.552 42.552L26.88 42.648L28.56 37.368H30.144V44.376L1.68 44.472V43.128L22.608 14.76L5.616 14.664L3.936 19.992H2.352Z"
          fill="#2A9D8F"/>
    <path d="M44.202 28.248H45.834C50.954 28.248 53.514 25.8 53.514 20.904C53.514 18.536 53.018 16.824 52.026 15.768C51.034 14.68 49.466 14.136 47.322 14.136C45.946 14.136 44.906 14.2 44.202 14.328V28.248ZM43.386 12.84L48.762 12.696C56.378 12.696 60.186 15.432 60.186 20.904C60.186 23.336 59.322 25.32 57.594 26.856C55.866 28.392 53.642 29.16 50.922 29.16H49.818C53.466 29.64 55.962 30.744 57.306 32.472C58.682 34.2 59.37 36.824 59.37 40.344C59.37 42.52 59.818 43.848 60.714 44.328C61.034 44.52 61.498 44.616 62.106 44.616C62.746 44.616 63.61 44.36 64.698 43.848L64.746 45C63.018 45.736 61.258 46.104 59.466 46.104C55.882 46.104 53.722 44.76 52.986 42.072C52.73 40.952 52.602 39.56 52.602 37.896C52.602 36.2 52.49 34.904 52.266 34.008C52.074 33.08 51.77 32.328 51.354 31.752C50.426 30.344 48.682 29.64 46.122 29.64H44.202V43.416L47.85 43.848V45H34.314V43.848L37.866 43.464V14.424L33.738 13.848V12.648C36.426 12.776 38.842 12.84 40.986 12.84H43.386Z"
          fill="#E76F51"/>
    <line y1="49.5" x2="33" y2="49.5" stroke="#E76F51" stroke-width="3"/>
    <line x1="33" y1="49.5" x2="66" y2="49.5" stroke="#2A9D8F" stroke-width="3"/>
</svg>
